<svg width="10" height="10" viewBox="0 0 10 10" fill="none" xmlns="http://www.w3.org/2000/svg">
<path opacity="0.4" d="M4.99995 0C7.75745 0 9.99995 2.243 9.99995 5C9.99995 7.757 7.75745 10 4.99995 10C2.24295 10 -4.95911e-05 7.757 -4.95911e-05 5C-4.95911e-05 2.243 2.24295 0 4.99995 0Z" fill="white"/>
<path d="M4.27875 2.88971C4.37425 2.88971 4.47025 2.92621 4.54325 2.99921L6.28675 4.73421C6.35725 4.80471 6.39675 4.90021 6.39675 5.00021C6.39675 5.09971 6.35725 5.19521 6.28675 5.26571L4.54325 7.00171C4.39675 7.14771 4.15975 7.14771 4.01325 7.00071C3.86725 6.85371 3.86775 6.61621 4.01425 6.47021L5.49075 5.00021L4.01425 3.53021C3.86775 3.38421 3.86725 3.14721 4.01325 3.00021C4.08625 2.92621 4.18275 2.88971 4.27875 2.88971Z" fill="white"/>
</svg>
