<svg width="14" height="14" viewBox="0 0 14 14" fill="none" xmlns="http://www.w3.org/2000/svg">
<path d="M8.16667 4.66675H2.33334C1.68992 4.66675 1.16667 5.19 1.16667 5.83341V11.6667C1.16667 12.3102 1.68992 12.8334 2.33334 12.8334H8.16667C8.81009 12.8334 9.33334 12.3102 9.33334 11.6667V5.83341C9.33334 5.19 8.81009 4.66675 8.16667 4.66675Z" fill="white" fill-opacity="0.4"/>
<path d="M11.6667 1.16675H5.83334C5.52392 1.16675 5.22717 1.28966 5.00838 1.50846C4.78959 1.72725 4.66667 2.024 4.66667 2.33341V3.50008H9.33334C9.64276 3.50008 9.9395 3.623 10.1583 3.84179C10.3771 4.06058 10.5 4.35733 10.5 4.66675V9.33341H11.6667C11.9761 9.33341 12.2728 9.2105 12.4916 8.99171C12.7104 8.77291 12.8333 8.47617 12.8333 8.16675V2.33341C12.8333 2.024 12.7104 1.72725 12.4916 1.50846C12.2728 1.28966 11.9761 1.16675 11.6667 1.16675Z" fill="white"/>
</svg>
