<svg width="14" height="14" viewBox="0 0 14 14" fill="none" xmlns="http://www.w3.org/2000/svg">
<path opacity="0.4" d="M11.4586 5.53498C11.4586 5.57465 11.1477 9.50676 10.9701 11.1616C10.8589 12.1772 10.2042 12.7931 9.2222 12.8106C8.46766 12.8276 7.72901 12.8334 7.00227 12.8334C6.23071 12.8334 5.47617 12.8276 4.74376 12.8106C3.79463 12.7879 3.13937 12.1597 3.03385 11.1616C2.85117 9.50093 2.54595 5.57465 2.54028 5.53498C2.53461 5.4154 2.57319 5.30166 2.65148 5.20949C2.72863 5.12433 2.83983 5.073 2.9567 5.073H11.0478C11.1641 5.073 11.2697 5.12433 11.3531 5.20949C11.4308 5.30166 11.4699 5.4154 11.4586 5.53498Z" fill="white"/>
<path d="M12.25 3.48658C12.25 3.24684 12.0611 3.05902 11.8342 3.05902H10.1333C9.78725 3.05902 9.48657 2.81286 9.40942 2.46579L9.31411 2.04055C9.18079 1.52665 8.72069 1.16675 8.20442 1.16675H5.79614C5.27421 1.16675 4.81865 1.52665 4.68022 2.06855L4.59115 2.46637C4.51343 2.81286 4.21275 3.05902 3.86725 3.05902H2.16641C1.93892 3.05902 1.75 3.24684 1.75 3.48658V3.70824C1.75 3.94215 1.93892 4.13581 2.16641 4.13581H11.8342C12.0611 4.13581 12.25 3.94215 12.25 3.70824V3.48658Z" fill="white"/>
</svg>
