<svg width="18" height="20" viewBox="0 0 18 20" fill="none" xmlns="http://www.w3.org/2000/svg">
<path opacity="0.4" d="M13.191 0H4.81C1.77 0 0 1.78 0 4.83V15.16C0 18.26 1.77 20 4.81 20H13.191C16.28 20 18 18.26 18 15.16V4.83C18 1.78 16.28 0 13.191 0" fill="white"/>
<path fill-rule="evenodd" clip-rule="evenodd" d="M5.07996 4.6499V4.6599C4.64896 4.6599 4.29996 5.0099 4.29996 5.4399C4.29996 5.8699 4.64896 6.2199 5.07996 6.2199H8.06896C8.49996 6.2199 8.84996 5.8699 8.84996 5.4289C8.84996 4.9999 8.49996 4.6499 8.06896 4.6499H5.07996ZM12.92 10.7399H5.07996C4.64896 10.7399 4.29996 10.3899 4.29996 9.9599C4.29996 9.5299 4.64896 9.1789 5.07996 9.1789H12.92C13.35 9.1789 13.7 9.5299 13.7 9.9599C13.7 10.3899 13.35 10.7399 12.92 10.7399ZM12.92 15.3099H5.07996C4.77996 15.3499 4.48996 15.1999 4.32996 14.9499C4.16996 14.6899 4.16996 14.3599 4.32996 14.1099C4.48996 13.8499 4.77996 13.7099 5.07996 13.7399H12.92C13.319 13.7799 13.62 14.1199 13.62 14.5299C13.62 14.9289 13.319 15.2699 12.92 15.3099Z" fill="white"/>
</svg>
