    <svg
            width="16"
            height="16"
            viewBox="0 0 16 16"
            fill="none"
            xmlns="http://www.w3.org/2000/svg"
          >
            <path
              opacity="0.4"
              d="M14.6666 8.00338C14.6666 11.676 11.6744 14.6668 7.99998 14.6668C4.32559 14.6668 1.33331 11.676 1.33331 8.00338C1.33331 4.32433 4.32559 1.3335 7.99998 1.3335C11.6744 1.3335 14.6666 4.32433 14.6666 8.00338"
              fill="#130F26"
            />
            <path
              d="M10.6667 8.0034C10.6667 8.17189 10.6136 8.34103 10.5076 8.47647C10.4877 8.50304 10.3949 8.61256 10.322 8.68384L10.2822 8.72272C9.72538 9.31308 8.33996 10.2009 7.63731 10.4854C7.63731 10.4919 7.2197 10.661 7.02083 10.6668H6.99432C6.68939 10.6668 6.40436 10.499 6.25852 10.2268C6.17898 10.0771 6.10606 9.64293 6.09943 9.6371C6.03977 9.24763 6 8.65144 6 7.99692C6 7.31065 6.03977 6.68789 6.11269 6.30555C6.11269 6.29907 6.18561 5.94913 6.23201 5.83248C6.30492 5.66464 6.4375 5.52143 6.60322 5.4307C6.7358 5.36655 6.875 5.3335 7.02083 5.3335C7.1733 5.34062 7.45833 5.43718 7.57102 5.48254C8.31345 5.76768 9.73201 6.70085 10.2756 7.27112C10.3684 7.36185 10.4678 7.47266 10.4943 7.49794C10.607 7.6405 10.6667 7.81547 10.6667 8.0034"
              fill="#130F26"
            />
          </svg>