<svg width="18" height="20" viewBox="0 0 18 20" fill="none" xmlns="http://www.w3.org/2000/svg">
<path opacity="0.4" d="M15.8088 7.021C15.3573 7.021 14.7592 7.011 14.0146 7.011C12.1987 7.011 10.7055 5.508 10.7055 3.675V0.459C10.7055 0.206 10.5026 0 10.253 0H4.96363C2.49517 0 0.5 2.026 0.5 4.509V15.284C0.5 17.889 2.59022 20 5.16958 20H13.0453C15.5058 20 17.5 17.987 17.5 15.502V7.471C17.5 7.217 17.298 7.012 17.0465 7.013C16.6247 7.016 16.1168 7.021 15.8088 7.021" fill="white"/>
<path opacity="0.4" d="M13.0842 0.56737C12.7852 0.25637 12.2632 0.47037 12.2632 0.90137V3.53837C12.2632 4.64437 13.1742 5.55437 14.2792 5.55437C14.9772 5.56237 15.9452 5.56437 16.7672 5.56237C17.1882 5.56137 17.4022 5.05837 17.1102 4.75437C16.0552 3.65737 14.1662 1.69137 13.0842 0.56737" fill="white"/>
<path d="M8.80447 7.40893C9.09347 7.69993 9.09547 8.17093 8.80247 8.46293L7.20547 10.0519L12.0325 10.0519C12.4435 10.0519 12.7775 10.3859 12.7775 10.7969C12.7775 11.2079 12.4435 11.5409 12.0325 11.5409L7.20547 11.5409L8.80247 13.1319C9.09547 13.4219 9.09347 13.8939 8.80447 14.1849C8.51547 14.4759 8.04347 14.4769 7.75147 14.1869L4.87647 11.3249C4.87547 11.3239 4.87547 11.3239 4.87547 11.3239C4.80747 11.2559 4.75247 11.1739 4.71547 11.0839C4.67747 10.9939 4.65747 10.8959 4.65747 10.7969C4.65747 10.6969 4.67747 10.5989 4.71547 10.5089C4.75247 10.4199 4.80747 10.3389 4.87447 10.2709C4.87547 10.2699 4.87547 10.2689 4.87647 10.2689L7.75147 7.40693C8.04347 7.11693 8.51547 7.11693 8.80447 7.40893" fill="white"/>
</svg>
